:SAMPLES-PER-SECOND 30
:FULLY-SPECIFIED
:DEGREES
433
root  -28.5868 32.7446 -21.9766 20.7844 -40.216 -143.246
Spine  -13.7653 -11.9309 9.79654
Spine1  -22.069 29.3261 -36.0951
Neck  3.97569e-016 0 -2.38542e-015
Head  -5.7216 12.801 3.87502
R_Clavicle  6.03131 28.9232 15.0764
R_UpperArm  59.7632 36.3024 -22.2948
R_Forearm  42.7566 -11.1897 17.3944
R_Hand  -24.8586 12.5355 -123.042
L_Clavicle  1.58611 -1.14192 -10.2852
L_UpperArm  -24.4636 -42.956 -18.3169
L_Forearm  -57.5535 35.4229 54.287
L_Hand  0.326433 -10.2746 -6.65244
L_Thigh  -6.45293 50.7314 25.9093
L_Calf  -25.7877 -11.2558 56.409
L_Foot  -2.68705 5.44446 -16.5743
L_Toe0  0.505314 0.0376869 -6.13589
R_Thigh  -1.79748 -54.9231 39.3679
R_Calf  -5.62681 12.0849 41.2775
R_Foot  1.74545 5.91745 -0.375627
R_Toe0  -1.78853 -0.272788 -17.3235
434
root  -28.7208 32.8514 -21.1198 1.84009 -44.5077 -140.57
Spine  -10.1803 -6.92818 7.78355
Spine1  -15.649 19.5012 -31.5334
Neck  3.97569e-016 0 -2.38542e-015
Head  -8.51721 14.7901 -1.10109
R_Clavicle  6.11522 32.1675 14.55
R_UpperArm  61.5707 30.8393 -28.5805
R_Forearm  50.3879 -8.43235 15.9047
R_Hand  -28.2972 14.0137 -126.791
L_Clavicle  1.62091 -2.10038 -9.80999
L_UpperArm  -35.4697 -37.0437 -2.72238
L_Forearm  -76.0171 17.4466 22.8535
L_Hand  5.17984 -27.9061 -29.7229
L_Thigh  -7.58046 48.3086 22.7085
L_Calf  -23.9632 -10.9293 55.4798
L_Foot  -2.45027 2.68592 -14.1424
L_Toe0  0.505314 0.037685 -6.13589
R_Thigh  -0.574665 -55.7308 38.5767
R_Calf  -4.55643 10.9014 36.4409
R_Foot  1.79677 6.06694 -0.512997
R_Toe0  -1.78853 -0.272788 -17.3235
435
root  -28.3381 32.8137 -20.2894 -15.7032 -48.6192 -140.148
Spine  -6.20538 0.848473 8.32705
Spine1  -9.54795 5.7245 -29.6746
Neck  3.97569e-016 0 -2.38542e-015
Head  -12.2043 15.6264 -5.12791
R_Clavicle  5.20442 38.2525 11.5329
R_UpperArm  69.5879 23.1937 -33.4016
R_Forearm  54.5983 -3.97504 14.0623
R_Hand  -28.6693 15.3048 -124.547
L_Clavicle  1.19977 -1.09035 -7.81241
L_UpperArm  -38.4489 -33.5121 -0.251354
L_Forearm  -84.5714 3.19034 7.00602
L_Hand  20.5078 -33.1896 -69.7073
L_Thigh  -8.53552 45.2008 20.0945
L_Calf  -17.053 -10.1409 54.5726
L_Foot  -2.48349 -1.27277 -11.6286
L_Toe0  0.505314 0.0376827 -6.13589
R_Thigh  -0.53828 -57.9865 37.2916
R_Calf  -0.206057 10.4249 34.5656
R_Foot  1.5348 5.41028 0.629182
R_Toe0  -1.78853 -0.272788 -17.3235
436
root  -27.4633 32.5485 -19.6005 -31.4875 -54.4042 -143.008
Spine  -0.440535 9.98433 13.6894
Spine1  -2.06183 -10.3848 -31.5917
Neck  3.97569e-016 0 -2.38542e-015
Head  -16.2168 13.8326 -7.29786
R_Clavicle  3.07882 38.7924 7.33076
R_UpperArm  72.6512 19.6427 -35.4939
R_Forearm  58.6093 -4.05269 15.9808
R_Hand  -28.1879 17.6161 -117.765
L_Clavicle  0.59121 1.87138 -5.15693
L_UpperArm  -34.9885 -35.7285 -9.5819
L_Forearm  -75.8229 3.94799 9.38044
L_Hand  26.2531 -33.1407 -84.3924
L_Thigh  -10.4099 42.2887 16.5689
L_Calf  -8.29922 -9.36201 53.2195
L_Foot  -2.93298 -5.80183 -10.0966
L_Toe0  0.505314 0.03768 -6.13589
R_Thigh  -3.416 -60.2913 37.9459
R_Calf  5.2639 10.8825 36.2981
R_Foot  1.35 5.09921 1.97964
R_Toe0  -1.78853 -0.272788 -17.3235
437
root  -26.2016 31.8465 -19.2217 -46.5277 -62.2023 -146.949
Spine  7.68652 17.3104 22.0407
Spine1  8.31014 -26.5429 -35.6111
Neck  3.97569e-016 0 -2.38542e-015
Head  -22.3017 10.8431 -8.44573
R_Clavicle  0.1392 33.3345 1.54052
R_UpperArm  69.9696 18.4515 -29.3179
R_Forearm  63.5007 -7.02351 18.5158
R_Hand  -29.7961 22.8023 -109.998
L_Clavicle  0.408205 3.6094 -4.59641
L_UpperArm  -33.271 -37.1039 -14.0377
L_Forearm  -63.8194 8.57003 15.0479
L_Hand  25.307 -35.1462 -78.8178
L_Thigh  -12.6881 39.5241 13.3579
L_Calf  1.20557 -8.57696 49.5329
L_Foot  -3.34501 -9.11983 -8.89285
L_Toe0  0.505314 0.0376768 -6.13589
R_Thigh  -9.86414 -61.6856 43.5374
R_Calf  8.58922 11.92 41.0746
R_Foot  0.984159 3.86394 1.81075
R_Toe0  -1.78853 -0.272788 -17.3235
438
root  -24.945 30.4591 -19.3939 -63.3032 -72.0939 -148.123
Spine  16.9733 21.4066 30.6569
Spine1  19.9067 -39.4244 -39.3639
Neck  3.97569e-016 0 -2.38542e-015
Head  -30.2195 9.43672 -9.33663
R_Clavicle  -1.64186 21.9169 -3.50857
R_UpperArm  66.0211 16.073 -17.4441
R_Forearm  59.8644 -7.29723 13.9421
R_Hand  -33.4109 35.2159 -96.7334
L_Clavicle  0.857594 0.840963 -6.72412
L_UpperArm  -34.1111 -34.7476 -10.9789
L_Forearm  -58.9855 10.1094 15.8883
L_Hand  21.3702 -33.1016 -73.2017
L_Thigh  -14.9432 36.7065 10.445
L_Calf  10.999 -7.01024 44.2185
L_Foot  -3.65262 -11.5393 -7.59375
L_Toe0  0.505314 0.0376733 -6.13589
R_Thigh  -15.295 -61.4549 51.336
R_Calf  7.11417 12.1921 47.5329
R_Foot  0.204137 0.855469 0.416451
R_Toe0  -1.78853 -0.272788 -17.3235
439
root  -24.3373 28.3847 -20.0118 -73.545 -85.9102 -154.192
Spine  24.9 23.5806 38.2424
Spine1  26.8426 -44.753 -38.4664
Neck  3.97569e-016 0 -2.38542e-015
Head  -34.1256 10.806 -9.1827
R_Clavicle  -1.42566 9.13852 -4.80911
R_UpperArm  50.9235 21.9148 -7.98253
R_Forearm  50.3328 -15.871 11.6455
R_Hand  -16.4904 44.4449 -55.6814
L_Clavicle  1.29039 -3.93946 -6.73989
L_UpperArm  -36.5493 -28.7077 -6.66674
L_Forearm  -57.8886 9.53845 15.3916
L_Hand  24.9062 -35.2369 -77.6339
L_Thigh  -15.2602 34.2947 4.49813
L_Calf  17.4075 -5.31511 40.8816
L_Foot  -4.11842 -14.0644 -7.3301
L_Toe0  0.505314 0.0376694 -6.13589
R_Thigh  -15.0714 -59.2845 55.1576
R_Calf  1.41156 10.9198 52.487
R_Foot  -0.119496 -0.880506 -1.12332
R_Toe0  -1.78853 -0.272788 -17.3235
440
root  -24.5717 25.9927 -20.702 121.459 -77.5753 -3.99805
Spine  29.0839 25.1579 42.0996
Spine1  25.4055 -39.391 -31.9648
Neck  3.97569e-016 0 -2.38542e-015
Head  -28.0525 13.7405 -3.68928
R_Clavicle  -0.230304 -6.12268 -1.7663
R_UpperArm  11.6608 36.3715 -12.3856
R_Forearm  44.9038 -32.232 20.323
R_Hand  -1.42421 15.289 -17.8588
L_Clavicle  0.693707 -1.99844 -4.04818
L_UpperArm  -39.646 -20.7329 -0.0330157
L_Forearm  -55.7548 9.49515 16.1895
L_Hand  31.9099 -38.0229 -86.7294
L_Thigh  -14.7918 32.6955 -3.62267
L_Calf  21.1381 -4.79298 39.5918
L_Foot  -4.68383 -16.8784 -7.46327
L_Toe0  0.505313 0.037665 -6.13589
R_Thigh  -15.1431 -55.4881 55.5486
R_Calf  0.677822 10.1534 53.4804
R_Foot  -0.0768427 -1.21058 -2.17551
R_Toe0  -1.78853 -0.272788 -17.3235
441
root  -25.3925 23.5326 -21.1876 103.521 -63.7723 0.817352
Spine  29.9062 29.2722 40.424
Spine1  20.2944 -32.813 -22.2443
Neck  3.97569e-016 0 -2.38542e-015
Head  -17.769 16.7662 7.06203
R_Clavicle  -0.12119 -5.01237 -1.46179
R_UpperArm  -8.75322 28.0356 -3.12203
R_Forearm  47.2893 -6.72777 6.29258
R_Hand  2.15523 10.5567 1.64085
L_Clavicle  0.361709 0.494485 -2.77812
L_UpperArm  -43.3924 -10.1637 10.3024
L_Forearm  -52.4481 8.61903 16.8618
L_Hand  34.8389 -36.6788 -94.7472
L_Thigh  -16.1801 30.0634 -9.36793
L_Calf  24.7873 -4.78493 38.4484
L_Foot  -5.19575 -19.5139 -6.62751
L_Toe0  0.505313 0.0376603 -6.13589
R_Thigh  -18.1452 -51.6264 57.7506
R_Calf  5.62321 10.1672 51.6701
R_Foot  -0.293387 -2.32089 -2.77637
R_Toe0  -1.78853 -0.272788 -17.3235
442
root  -26.5849 21.041 -21.3788 94.2369 -53.5933 -1.08623
Spine  28.1982 35.3125 34.8814
Spine1  14.7796 -28.4538 -13.9945
Neck  3.97569e-016 0 -2.38542e-015
Head  -8.34757 18.3925 21.2857
R_Clavicle  -0.505853 0.546792 -2.44254
R_UpperArm  4.11299 18.2764 12.1453
R_Forearm  26.3427 13.5807 -11.6049
R_Hand  2.27788 6.7479 8.5718
L_Clavicle  0.0840748 4.44792 -2.0269
L_UpperArm  -43.4246 -0.830517 21.5178
L_Forearm  -49.6154 7.90973 15.5069
L_Hand  36.8095 -33.9209 -103.709
L_Thigh  -15.2961 25.5876 -9.08069
L_Calf  25.2738 -4.51861 34.4952
L_Foot  -5.45548 -20.8439 -3.94756
L_Toe0  0.505313 0.0376551 -6.13589
R_Thigh  -20.8146 -48.981 62.5436
R_Calf  7.41622 10.5331 50.0441
R_Foot  -0.559707 -3.71862 -3.45921
R_Toe0  -1.78853 -0.272788 -17.3235
443
root  -28.191 18.6899 -21.2852 85.9901 -45.1221 -1.93007
Spine  24.5865 41.4186 27.403
Spine1  9.48621 -25.6014 -7.14206
Neck  3.97569e-016 0 -2.38542e-015
Head  -3.00717 18.4122 34.2459
R_Clavicle  -0.221179 2.24353 -0.838554
R_UpperArm  18.2769 15.0022 31.4051
R_Forearm  12.0996 31.6373 -30.8128
R_Hand  1.92115 7.00632 5.0954
L_Clavicle  -0.198303 5.92676 0.424353
L_UpperArm  -41.1895 6.78336 27.0187
L_Forearm  -44.8468 9.09732 15.9152
L_Hand  43.5679 -32.8789 -115.588
L_Thigh  -10.8206 21.241 -3.39765
L_Calf  23.4881 -3.60294 26.7562
L_Foot  -5.30586 -20.4401 0.520702
L_Toe0  0.505313 0.0376497 -6.13589
R_Thigh  -21.1384 -48.1134 66.6473
R_Calf  3.2782 10.6255 50.245
R_Foot  -0.536544 -4.28503 -4.56706
R_Toe0  -1.78853 -0.272788 -17.3235
